<?xml version="1.0" standalone="no"?>
<!DOCTYPE svg PUBLIC "-//W3C//DTD SVG 20010904//EN"
 "http://www.w3.org/TR/2001/REC-SVG-20010904/DTD/svg10.dtd">
<svg version="1.0" xmlns="http://www.w3.org/2000/svg"
 width="16.000000pt" height="16.000000pt" viewBox="0 0 16.000000 16.000000"
 preserveAspectRatio="xMidYMid meet">
<metadata>
Created by potrace 1.16, written by Peter Selinger 2001-2019
</metadata>
<g transform="translate(0.000000,16.000000) scale(0.002792,-0.002792)"
fill="#000000" stroke="none">
<path d="M2635 5704 c-17 -16 -45 -28 -69 -32 -27 -3 -54 -16 -79 -38 -24 -22
-47 -34 -66 -34 -15 0 -54 -14 -85 -30 -50 -27 -56 -28 -46 -10 8 16 8 20 -4
20 -8 0 -19 -7 -23 -15 -5 -8 -35 -24 -68 -36 -33 -11 -71 -29 -86 -40 -15
-10 -37 -19 -49 -19 -13 0 -60 -18 -106 -40 -46 -22 -88 -40 -93 -40 -5 0 -37
-29 -72 -65 -34 -36 -67 -65 -73 -65 -16 -1 -51 -32 -59 -52 -3 -10 -17 -20
-30 -23 -19 -5 -24 -13 -25 -37 -1 -23 -12 -42 -47 -75 -39 -36 -45 -46 -35
-58 10 -12 9 -15 -6 -15 -16 0 -17 -2 -4 -10 10 -7 12 -12 4 -17 -6 -5 -16
-18 -23 -30 -6 -13 -17 -23 -24 -23 -7 0 -12 -13 -12 -28 0 -23 4 -28 18 -24
13 3 16 0 11 -12 -3 -9 -11 -16 -18 -16 -15 0 -31 -20 -83 -100 -67 -105 -82
-140 -96 -230 -12 -78 -11 -98 10 -235 12 -82 29 -181 38 -220 15 -67 31 -164
54 -323 6 -41 9 -78 5 -83 -7 -12 -31 -12 -36 1 -1 5 -25 13 -53 16 l-50 7 44
-40 c26 -24 41 -45 37 -52 -4 -6 -5 -30 -1 -52 5 -29 11 -39 21 -35 8 3 25 0
39 -6 29 -13 40 -57 31 -120 -4 -24 -8 -56 -9 -72 -1 -20 -9 -31 -26 -37 l-23
-9 22 -18 c22 -18 22 -19 5 -45 -15 -23 -15 -27 -2 -27 18 0 29 -117 15 -165
-14 -51 2 -238 23 -266 26 -34 54 -16 52 32 -3 54 -2 234 3 489 2 129 5 260 5
290 2 81 48 270 68 278 34 12 61 52 61 92 0 23 7 45 17 56 17 16 53 88 53 104
0 13 -42 20 -61 9 -16 -8 -17 -6 -8 21 6 17 18 30 27 30 25 1 56 27 42 35 -6
4 -17 2 -25 -5 -24 -20 -26 7 -4 55 12 25 33 55 48 67 17 13 22 22 14 25 -18
6 -16 33 1 33 8 0 13 8 12 18 -1 14 6 16 40 14 24 -2 45 1 49 8 5 8 15 5 31
-11 26 -24 30 -20 14 11 -8 16 -5 22 16 37 25 16 27 16 40 -2 10 -13 11 -22 4
-29 -5 -5 -10 -13 -10 -18 0 -14 35 5 61 34 17 18 30 25 34 19 10 -17 38 -13
31 4 -6 17 9 21 19 5 4 -6 10 -8 15 -5 10 6 45 -24 53 -46 3 -11 7 -11 17 -2
11 10 11 15 0 27 -7 9 -10 26 -6 39 5 22 13 25 73 30 75 7 140 0 162 -17 8 -6
68 -12 140 -14 162 -5 183 -6 206 -19 12 -7 29 -7 49 -2 17 5 45 6 61 2 17 -3
42 -6 57 -5 15 1 29 -2 33 -8 10 -16 45 -12 45 5 0 24 30 17 40 -10 10 -27 38
-33 58 -13 9 9 15 9 23 1 6 -6 18 -9 25 -6 15 5 44 -19 44 -36 0 -6 -4 -11
-10 -11 -5 0 -7 -7 -4 -15 10 -24 75 -13 95 17 3 5 18 4 35 -2 17 -7 47 -9 74
-4 45 7 249 16 328 14 23 0 42 4 42 10 0 5 5 10 10 10 6 0 10 -7 10 -15 0 -9
9 -15 21 -15 24 0 50 -28 81 -87 13 -26 29 -43 39 -43 17 0 18 10 4 43 -13 31
9 42 48 23 19 -9 39 -16 44 -16 5 0 16 -11 23 -25 10 -19 10 -28 1 -39 -8 -10
-9 -15 -1 -18 6 -2 8 -11 5 -20 -5 -13 -12 -15 -35 -7 -29 11 -45 33 -34 50 7
11 -17 11 -35 0 -23 -15 46 -75 86 -75 20 0 33 -5 33 -13 0 -7 10 -22 22 -33
12 -11 23 -31 23 -43 0 -13 9 -26 23 -32 25 -11 28 -27 8 -44 -27 -23 8 -91
48 -91 50 -1 118 -240 120 -419 1 -133 -13 -552 -20 -585 -8 -38 -13 -70 -19
-136 -5 -52 -3 -56 25 -78 28 -22 30 -22 37 -5 4 10 15 24 25 31 15 11 17 21
12 48 -5 29 -3 36 12 40 21 6 64 67 64 90 0 8 5 14 10 14 6 0 10 7 10 15 0 8
-7 15 -15 15 -9 0 -18 -7 -21 -15 -7 -18 -34 -20 -35 -2 -1 6 -3 41 -4 77 -2
36 -7 91 -10 123 -6 53 -5 57 13 57 11 0 28 -7 36 -16 9 -8 16 -11 16 -5 0 6
9 11 19 11 24 0 31 18 18 48 -11 24 -41 36 -78 30 -23 -3 -24 -1 -21 47 4 68
21 122 33 104 5 -8 9 -24 9 -36 0 -41 19 -24 26 22 3 25 10 48 15 50 4 3 6 13
3 23 -5 15 -4 15 6 -1 27 -42 40 14 15 63 -14 27 -14 30 9 53 22 22 56 78 56
92 0 13 -26 3 -52 -22 l-27 -26 -11 28 c-19 51 -15 194 8 246 11 26 27 73 36
105 16 62 39 271 31 284 -2 4 2 32 9 61 9 33 13 87 10 138 -2 46 1 91 5 100 6
9 3 27 -7 48 -12 26 -14 42 -6 71 5 20 8 58 6 85 -3 36 -8 47 -21 47 -12 0
-22 14 -31 43 -7 23 -20 58 -30 77 -10 19 -21 46 -25 59 -4 14 -36 53 -71 88
-35 34 -64 71 -64 81 0 26 -35 55 -57 48 -11 -4 -28 3 -43 17 -14 13 -39 32
-57 42 -48 28 -52 48 -8 39 22 -4 35 -2 35 4 0 12 -16 18 -77 27 -24 4 -43 11
-43 16 0 5 -11 9 -24 9 -13 0 -29 7 -36 15 -7 8 -27 15 -46 15 -18 0 -36 5
-39 10 -3 6 1 10 10 10 9 0 13 5 10 10 -3 6 -15 10 -26 10 -10 0 -19 5 -19 11
0 5 -4 8 -9 5 -5 -3 -20 5 -32 19 -13 13 -31 25 -40 25 -9 0 -30 7 -45 15 -16
8 -39 15 -51 15 -12 0 -23 3 -25 8 -4 10 -67 39 -100 46 -15 3 -29 15 -33 25
-3 11 -19 22 -35 26 -16 3 -33 12 -39 19 -7 8 -22 11 -38 8 -22 -4 -25 -2 -19
13 6 16 1 17 -54 12 -33 -3 -68 -11 -76 -18 -13 -10 -17 -10 -24 2 -8 11 -13
12 -29 2 -13 -8 -21 -9 -23 -2 -4 13 -256 16 -333 4 -27 -4 -63 -7 -79 -6 -18
0 -30 -5 -33 -17 -2 -9 -16 -23 -31 -30 -26 -12 -82 -17 -82 -6 0 3 14 23 32
45 39 49 32 60 -13 20 -60 -56 -60 -30 1 38 16 18 30 35 30 37 0 8 -8 3 -35
-22z"/>
<path d="M2020 3808 c-30 -5 -70 -9 -88 -8 -31 1 -54 -7 -149 -52 -62 -28 -69
-49 -20 -53 14 -1 21 -8 19 -18 -2 -14 5 -16 46 -14 48 2 49 2 41 30 -7 25 -5
27 19 27 21 0 24 -2 12 -10 -31 -19 8 -31 111 -34 57 -2 118 -9 134 -15 17 -7
39 -15 50 -17 62 -12 82 -18 102 -31 13 -9 30 -13 38 -9 15 5 58 -27 49 -37
-3 -2 -24 -1 -47 4 -56 11 -155 11 -161 0 -3 -4 -58 -11 -123 -13 -81 -4 -127
-11 -148 -22 -16 -9 -35 -16 -41 -16 -6 0 -24 -10 -40 -22 -16 -13 -30 -22
-31 -20 -2 1 -11 2 -22 2 -14 0 -17 -6 -13 -27 7 -40 21 -54 48 -47 29 7 31
-5 4 -36 -25 -29 -25 -30 3 -30 13 0 34 9 47 20 30 26 55 27 41 1 -14 -25 -4
-32 25 -19 17 8 24 18 22 34 -4 32 19 67 58 87 50 25 54 22 48 -30 -4 -44 -2
-51 28 -83 30 -32 37 -35 89 -35 51 0 60 3 83 29 14 17 28 47 31 68 4 21 11
38 16 38 14 0 102 -68 112 -86 8 -14 47 -20 47 -6 -1 22 -94 98 -152 124 -117
52 -299 45 -405 -18 -40 -23 -43 -23 -31 -5 15 24 98 71 125 71 10 0 24 5 30
11 11 11 229 7 277 -6 15 -4 60 -25 99 -46 40 -23 83 -39 102 -39 20 0 35 -6
39 -15 3 -8 12 -15 20 -15 8 0 21 7 30 15 8 8 29 15 47 15 l32 0 -23 25 c-13
14 -30 25 -37 25 -7 0 -16 14 -20 30 -4 24 -10 29 -24 25 -14 -5 -17 -2 -13 9
5 13 -1 16 -29 16 -19 0 -40 7 -47 15 -8 10 -9 15 -1 15 6 0 13 11 17 25 3 14
10 25 14 25 5 0 17 -11 28 -25 18 -23 42 -34 42 -18 0 3 -12 22 -26 40 -20 27
-31 33 -48 29 -16 -4 -31 3 -52 23 -16 15 -51 36 -79 46 -27 10 -54 22 -60 25
-5 4 -57 10 -115 14 -58 4 -106 11 -108 17 -2 5 -7 8 -10 8 -4 -1 -32 -6 -62
-11z"/>
<path d="M3697 3803 c3 -10 11 -24 17 -32 9 -12 3 -13 -38 -8 -27 4 -54 12
-61 17 -16 13 -79 11 -195 -6 -52 -8 -105 -15 -117 -17 -12 -2 -26 -6 -29 -10
-4 -4 -17 -7 -28 -8 -12 0 -15 -3 -8 -6 18 -7 14 -41 -8 -63 -11 -11 -20 -24
-20 -28 0 -28 -104 -42 -114 -15 -3 7 -10 13 -15 13 -20 0 2 -30 25 -36 33 -8
30 -23 -11 -63 -19 -19 -35 -40 -35 -47 0 -8 -4 -14 -10 -14 -5 0 -10 -6 -10
-14 0 -18 83 -29 115 -14 14 6 25 15 25 20 0 4 18 8 39 8 22 0 43 5 46 10 3 6
17 10 30 10 13 0 26 4 30 9 14 24 123 45 235 46 115 0 163 -10 238 -49 33 -17
85 -70 59 -60 -9 3 -17 10 -17 15 0 5 -5 9 -11 9 -6 0 -25 6 -42 14 -100 46
-225 58 -308 32 -24 -8 -56 -17 -71 -20 -32 -7 -147 -96 -148 -113 0 -7 11
-13 25 -13 16 0 25 6 25 15 0 8 6 15 13 15 8 0 24 11 37 25 33 35 66 33 73 -4
4 -16 20 -45 38 -65 27 -32 37 -36 78 -36 39 0 52 5 73 28 28 30 50 85 42 106
-8 22 15 30 35 12 10 -9 22 -16 28 -16 17 0 43 -35 43 -58 0 -17 6 -22 28 -23
15 -1 31 -1 36 0 5 1 13 -3 17 -10 10 -17 38 -3 49 25 6 17 14 23 28 19 14 -3
21 2 25 18 8 30 -24 81 -60 98 -15 7 -35 17 -43 21 -9 4 -31 11 -50 14 -19 4
-46 11 -60 16 -14 5 -92 11 -175 14 -171 5 -155 4 -155 14 0 9 58 32 81 32 8
0 28 7 44 16 34 19 151 22 168 5 17 -17 27 -13 27 9 0 11 7 20 16 20 8 0 12 5
9 10 -9 15 1 12 45 -10 22 -11 46 -20 53 -20 8 0 28 -7 43 -15 32 -16 70 -22
46 -6 -21 13 -10 47 13 43 11 -1 25 6 31 16 10 16 6 22 -30 44 -22 15 -57 28
-76 29 -19 2 -37 6 -40 10 -3 3 -17 9 -32 13 -34 8 -37 -8 -6 -33 l21 -18 -21
-5 c-15 -4 -23 -1 -27 12 -8 27 -37 56 -62 64 -19 6 -22 4 -16 -11z"/>
<path d="M3086 2544 c-21 -8 -46 -20 -54 -26 -13 -11 -11 -14 13 -18 37 -7 43
-28 11 -36 -30 -7 -33 -19 -8 -33 17 -9 43 -6 112 15 20 6 70 49 70 60 0 2
-14 1 -30 -3 -24 -4 -29 -3 -25 9 7 17 -19 48 -38 47 -7 0 -30 -7 -51 -15z"/>
<path d="M3350 2155 c0 -8 -5 -15 -11 -15 -7 0 -10 -12 -7 -29 l4 -29 -90 -7
c-50 -3 -113 -13 -141 -22 -35 -11 -108 -17 -247 -20 -204 -6 -228 -2 -318 44
-14 7 -35 13 -48 13 -12 0 -31 6 -43 13 -17 10 -22 9 -34 -7 -11 -14 -22 -17
-47 -13 -36 6 -149 -20 -160 -37 -4 -5 -4 -14 -1 -19 3 -5 0 -13 -7 -17 -18
-11 -2 -50 21 -50 10 0 19 5 19 10 0 14 37 12 43 -2 3 -10 8 -10 17 -2 9 9 9
17 0 33 -18 34 15 40 41 7 11 -14 27 -26 35 -26 8 0 14 -7 14 -15 0 -8 4 -15
10 -15 14 0 32 39 24 52 -9 14 192 4 249 -12 23 -7 91 -9 185 -5 347 13 347
13 344 -12 -2 -12 2 -24 8 -28 6 -4 10 4 10 20 0 25 24 45 38 30 4 -4 1 -10
-5 -12 -12 -4 -19 -33 -8 -33 2 0 24 14 49 31 39 28 49 31 90 25 25 -4 46 -11
46 -17 0 -13 38 -11 42 2 5 15 -46 69 -66 69 -9 0 -16 7 -16 15 0 8 5 15 10
15 17 0 11 29 -9 47 -11 9 -18 20 -15 25 3 4 -2 8 -10 8 -9 0 -16 -7 -16 -15z"/>
<path d="M4007 1993 c-4 -3 -7 -19 -7 -35 0 -15 -4 -28 -10 -28 -5 0 -10 5
-10 10 0 6 -5 10 -10 10 -7 0 -8 -13 -4 -34 5 -30 2 -38 -28 -65 -39 -36 -41
-36 -63 -15 -22 22 -27 14 -11 -18 17 -32 5 -58 -17 -39 -18 14 -32 -1 -23
-24 3 -9 -4 -19 -16 -26 -16 -9 -24 -8 -36 5 -14 13 -13 14 5 10 15 -4 22 0
26 15 4 17 1 21 -19 21 -13 0 -24 5 -24 10 0 6 -7 10 -15 10 -18 0 -20 -26 -2
-33 8 -3 7 -7 -4 -11 -8 -4 -28 -2 -44 4 l-29 11 27 25 c33 31 34 36 2 28 -15
-4 -25 -2 -25 5 0 6 -7 11 -15 11 -9 0 -15 -9 -15 -21 0 -17 -4 -20 -24 -15
-15 4 -26 1 -28 -6 -3 -9 -12 -8 -31 5 -40 26 -46 21 -42 -33 3 -39 1 -50 -11
-50 -8 0 -14 6 -14 14 0 18 -17 29 -31 21 -7 -5 -5 -15 5 -31 21 -31 20 -34
-9 -34 -20 0 -25 5 -25 25 0 27 -9 32 -28 13 -10 -10 -8 -16 10 -30 22 -17 22
-19 5 -29 -10 -6 -17 -20 -16 -32 4 -56 -14 -61 -24 -7 -7 35 -20 38 -49 10
-18 -16 -19 -22 -8 -35 7 -9 22 -14 34 -13 28 4 34 -28 7 -35 -21 -5 -44 -48
-43 -79 0 -12 -7 -18 -21 -19 -12 0 -16 -3 -9 -6 26 -10 10 -23 -28 -23 -33 0
-40 -3 -40 -20 0 -10 -9 -24 -19 -30 -26 -13 -29 -13 -33 7 -2 13 -9 10 -35
-15 -18 -18 -34 -28 -38 -22 -3 5 -3 15 0 20 3 6 0 10 -7 10 -15 0 -40 -35
-31 -44 4 -3 14 -6 24 -6 9 0 19 -6 22 -13 4 -10 -13 -14 -74 -15 -65 -1 -79
1 -79 14 0 12 -4 13 -20 4 -11 -6 -56 -13 -100 -15 -65 -3 -80 -1 -80 10 0 17
-13 19 -57 6 -20 -6 -35 -6 -38 0 -4 5 1 9 10 9 9 0 15 6 12 13 -2 7 -17 11
-35 9 -24 -2 -32 1 -32 12 0 10 -9 16 -25 16 -20 0 -25 -5 -25 -25 0 -24 -10
-32 -23 -18 -4 3 -2 12 5 20 9 11 5 21 -19 46 -17 18 -29 37 -26 44 3 8 -6 12
-26 10 -35 -2 -43 -27 -10 -27 18 0 19 -2 9 -15 -11 -14 -14 -13 -24 1 -14 18
-46 21 -91 9 -29 -8 -30 -8 -12 12 21 24 22 43 3 43 -21 0 -31 21 -16 30 10 6
7 11 -9 21 -11 8 -21 24 -21 36 0 13 -6 23 -12 23 -8 1 -6 6 5 14 25 19 21 36
-8 36 -18 0 -25 5 -25 19 0 25 18 37 33 22 14 -14 47 -15 47 -1 0 6 -6 11 -12
11 -7 1 -17 2 -23 3 -5 0 -22 14 -37 29 -24 23 -33 27 -62 22 -32 -6 -33 -5
-29 18 4 21 -1 29 -27 42 -41 21 -65 14 -50 -15 12 -22 -3 -27 -30 -10 -11 7
-16 4 -20 -12 -6 -25 -30 -37 -30 -15 0 8 -16 33 -36 55 l-36 41 -21 -24 c-24
-26 -74 -39 -69 -17 1 6 -4 12 -12 12 -8 0 -16 -6 -19 -12 -2 -8 -8 -9 -13 -4
-5 5 -4 11 4 13 17 6 15 28 -5 44 -13 11 -17 11 -20 2 -6 -16 -23 -17 -23 -2
0 6 -7 18 -16 26 -9 9 -14 26 -11 40 2 12 0 23 -4 23 -12 0 -11 -77 1 -85 6
-3 10 -14 10 -24 0 -10 11 -35 25 -55 14 -20 25 -43 25 -51 0 -8 7 -15 15 -15
8 0 15 -7 15 -15 0 -8 -9 -15 -20 -15 -11 0 -20 -6 -20 -13 0 -23 12 -27 33
-12 19 13 23 13 44 -7 28 -27 30 -43 3 -26 -29 18 -45 -8 -25 -39 8 -12 15
-31 15 -43 0 -14 7 -20 21 -20 18 0 20 4 14 30 -4 19 -3 30 4 30 10 0 15 -14
12 -34 -1 -5 8 -20 21 -33 l23 -25 -29 8 c-26 6 -27 5 -17 -14 6 -11 25 -35
43 -53 32 -32 32 -32 10 -40 -12 -5 -22 -15 -22 -22 0 -19 -59 -31 -76 -16 -8
6 -14 16 -14 22 0 6 -7 19 -17 29 -15 17 -15 18 9 18 19 0 27 -7 32 -25 8 -30
36 -34 36 -4 0 13 -8 23 -20 26 -14 4 -19 11 -15 24 4 12 -2 23 -20 35 -17 11
-25 25 -25 45 0 22 -5 29 -20 29 -27 0 -25 -13 10 -62 23 -31 27 -44 18 -49
-8 -5 -22 0 -35 13 -13 12 -26 19 -29 16 -5 -6 13 -48 25 -58 4 -3 15 -18 25
-35 11 -16 28 -36 38 -43 10 -7 18 -18 18 -23 0 -17 136 -158 212 -219 23 -19
56 -47 71 -62 16 -16 32 -28 35 -28 4 0 25 -17 48 -38 23 -20 48 -41 56 -47
31 -21 214 -160 226 -172 7 -7 16 -13 20 -13 4 0 23 -15 42 -33 57 -54 148
-117 167 -117 17 1 17 1 -1 11 -15 9 -16 13 -5 20 11 7 10 9 -3 9 -30 0 -19
14 30 38 57 27 70 28 96 3 27 -24 62 -32 58 -12 -5 23 7 61 19 61 6 0 9 -7 5
-15 -7 -19 5 -19 30 0 19 14 19 14 0 15 -21 0 -17 10 6 14 71 14 88 20 88 28
0 5 5 6 10 3 16 -10 12 -40 -7 -58 -10 -8 -40 -24 -68 -35 -32 -13 -55 -30
-65 -47 -9 -16 -24 -32 -35 -37 -13 -5 -8 -6 15 -2 19 4 37 9 40 13 10 12 101
71 109 71 5 0 11 4 13 8 4 11 113 92 122 92 4 0 14 6 21 13 32 28 45 37 53 37
4 0 21 13 37 30 16 16 33 30 38 30 4 0 14 6 21 13 7 6 27 23 45 37 18 14 46
37 62 53 17 15 34 27 39 27 4 0 10 3 12 8 4 10 84 72 93 72 8 0 191 185 222
225 41 52 12 41 -38 -15 -41 -45 -51 -52 -59 -40 -6 8 -8 23 -6 34 7 29 -18
48 -47 37 -14 -6 -28 -15 -32 -20 -3 -6 -15 -11 -27 -11 -17 0 -18 2 -8 15 7
8 19 15 26 15 8 0 14 5 14 10 0 6 23 10 50 10 28 0 50 5 50 10 0 6 -11 8 -25
4 -14 -3 -25 -2 -25 4 0 15 22 30 49 34 18 2 27 12 33 33 8 32 37 70 60 78 9
3 5 11 -12 25 -24 21 -24 21 -4 22 30 0 36 24 13 51 -23 26 -23 25 -5 32 8 3
13 -1 12 -10 -2 -25 22 -26 35 -2 9 19 9 25 -5 34 -22 16 -20 25 4 25 15 0 20
7 20 25 0 14 8 29 19 35 13 6 17 17 14 30 -3 11 -1 20 5 20 11 0 28 64 24 87
-2 6 2 14 8 18 5 3 10 13 10 22 0 9 7 24 16 34 21 23 3 54 -19 32z m-1528
-1075 c20 -12 38 -26 39 -30 2 -4 11 -8 21 -8 9 0 25 -6 36 -13 11 -8 59 -26
106 -41 94 -31 134 -31 264 -3 39 8 100 21 138 28 37 7 67 17 67 21 0 4 5 8
11 8 7 0 34 14 62 31 47 29 77 32 77 9 0 -5 -11 -10 -24 -10 -15 0 -33 -11
-45 -27 -20 -24 -20 -27 -5 -45 16 -17 16 -18 -4 -18 -24 0 -55 -27 -47 -41
10 -15 -15 -10 -31 6 -16 16 -64 21 -64 7 0 -15 -63 -32 -77 -21 -9 9 -20 7
-39 -6 -19 -12 -37 -15 -63 -10 -20 3 -65 8 -101 10 -77 5 -121 14 -137 27 -7
6 -20 8 -28 4 -9 -3 -25 3 -37 14 -12 11 -30 20 -40 20 -10 0 -18 5 -18 10 0
6 -6 10 -13 10 -12 0 -38 19 -100 73 -18 15 -18 17 -2 17 10 0 34 -10 54 -22z"/>
<path d="M2441 1822 c-19 -3 -22 -8 -18 -29 3 -17 -1 -28 -14 -36 -18 -11 -25
-37 -13 -50 3 -3 18 7 32 23 l27 29 50 -24 c28 -13 57 -24 66 -25 8 0 19 -4
25 -9 28 -29 339 -41 420 -16 27 8 61 15 75 15 31 0 89 27 89 42 0 6 10 8 23
4 29 -7 67 18 67 43 0 22 -26 36 -34 18 -2 -7 -5 -4 -5 6 -1 25 -27 21 -84
-14 -31 -19 -65 -32 -89 -32 -21 -1 -43 -8 -48 -16 -13 -23 -313 -20 -339 3
-9 9 -29 16 -44 16 -14 0 -29 5 -32 10 -3 6 -16 10 -28 10 -12 0 -33 6 -47 13
-38 20 -53 23 -79 19z"/>
<path d="M1655 1676 c-5 -6 -30 -52 -54 -102 -29 -61 -57 -103 -85 -127 -120
-107 -170 -147 -187 -147 -10 0 -21 -4 -24 -10 -3 -5 -13 -10 -22 -10 -13 0
-109 -45 -208 -98 -62 -32 -193 -92 -203 -92 -7 0 -12 -4 -12 -9 0 -5 -12 -12
-27 -16 -15 -3 -30 -10 -33 -13 -9 -12 -71 -42 -86 -42 -37 0 -2 -47 138 -185
224 -219 428 -369 690 -505 106 -55 343 -160 361 -160 4 0 1 112 -3 120 -2 3
-4 16 -5 30 -3 26 -80 247 -171 488 -72 190 -96 287 -102 408 -5 114 11 310
34 398 16 63 16 92 -1 72z"/>
<path d="M4050 1628 c1 -7 7 -66 14 -132 26 -228 -7 -527 -74 -673 -75 -162
-178 -419 -210 -525 -7 -24 -6 -28 11 -28 24 0 24 -4 0 -73 l-20 -56 71 25
c443 160 860 446 1182 809 l70 80 -37 9 c-20 5 -37 13 -37 18 0 4 -7 8 -15 8
-9 0 -45 14 -80 30 -35 17 -66 30 -69 30 -3 0 -31 12 -63 26 -84 36 -90 39
-178 74 -44 17 -89 35 -100 40 -11 5 -31 12 -45 16 -14 3 -43 14 -65 24 -22
10 -60 23 -85 30 -57 15 -147 104 -210 207 -43 70 -61 87 -60 61z"/>
<path d="M3008 484 c-4 -3 -37 -8 -75 -10 -37 -2 -114 -7 -170 -10 -73 -5
-103 -3 -103 5 0 24 -23 8 -94 -64 -72 -73 -146 -191 -146 -232 0 -10 -11 -34
-24 -53 -38 -57 -41 -77 -12 -84 108 -27 466 -47 466 -26 0 6 7 10 16 10 9 0
12 -5 8 -12 -5 -8 31 -9 147 -5 211 9 252 15 243 36 -3 9 -13 41 -21 71 -23
85 -98 227 -160 305 -58 73 -65 80 -75 69z"/>
</g>
</svg>
